<?xml version="1.0" standalone="no"?><!DOCTYPE svg PUBLIC "-//W3C//DTD SVG 1.1//EN" "http://www.w3.org/Graphics/SVG/1.1/DTD/svg11.dtd"><svg height="2903" legacy-metrics="false" node-id="1" sillyvg="true" template-height="2903" template-width="2903" version="1.1" viewBox="0 0 2903 2903" width="2903" xmlns="http://www.w3.org/2000/svg" xmlns:xlink="http://www.w3.org/1999/xlink"><defs node-id="41"><linearGradient gradientUnits="userSpaceOnUse" id="SVGID_1_" node-id="7" x1="1451.3408" x2="1451.3407" y1="2769.4512" y2="133.2305"><stop offset="0" stop-color="#6bc99a"></stop><stop offset="1" stop-color="#3293e5"></stop></linearGradient></defs><g node-id="125"><path d="M 1451.34 2895.18 C 1256.42 2895.18 1067.33 2857.01 889.34 2781.72 C 803.78 2745.53 721.27 2700.74 644.08 2648.60 C 567.63 2596.95 495.73 2537.63 430.39 2472.29 C 365.05 2406.95 305.74 2335.05 254.08 2258.60 C 201.94 2181.41 157.15 2098.90 120.96 2013.35 C 45.67 1835.35 7.50 1646.26 7.50 1451.34 C 7.50 1256.42 45.67 1067.33 120.96 889.34 C 157.15 803.78 201.94 721.27 254.08 644.08 C 305.73 567.63 365.05 495.73 430.39 430.39 C 495.73 365.05 567.63 305.74 644.08 254.08 C 721.27 201.94 803.78 157.15 889.34 120.96 C 1067.33 45.68 1256.42 7.50 1451.34 7.50 C 1646.26 7.50 1835.35 45.68 2013.34 120.96 C 2098.90 157.15 2181.41 201.94 2258.60 254.08 C 2335.05 305.73 2406.95 365.05 2472.29 430.39 C 2537.63 495.73 2596.95 567.63 2648.60 644.08 C 2700.74 721.27 2745.53 803.78 2781.72 889.34 C 2857.01 1067.33 2895.18 1256.42 2895.18 1451.34 C 2895.18 1646.26 2857.01 1835.35 2781.72 2013.35 C 2745.53 2098.90 2700.74 2181.41 2648.60 2258.60 C 2596.95 2335.05 2537.63 2406.95 2472.29 2472.29 C 2406.95 2537.63 2335.05 2596.95 2258.60 2648.60 C 2181.41 2700.74 2098.90 2745.53 2013.34 2781.72 C 1835.35 2857.01 1646.26 2895.18 1451.34 2895.18 Z" fill="#fefffd" fill-rule="nonzero" group-id="1" node-id="52" stroke="none" target-height="2887.679" target-width="2887.679" target-x="7.501" target-y="7.501"></path><g node-id="130"><path d="M 1451.34 15.00 C 1548.80 15.00 1646.20 24.82 1740.83 44.18 C 1833.04 63.05 1923.75 91.21 2010.42 127.87 C 2095.53 163.87 2177.61 208.42 2254.40 260.30 C 2330.46 311.68 2401.99 370.69 2466.99 435.70 C 2531.99 500.70 2591.00 572.22 2642.39 648.28 C 2694.26 725.07 2738.82 807.15 2774.81 892.26 C 2811.47 978.93 2839.63 1069.64 2858.50 1161.85 C 2877.86 1256.48 2887.68 1353.88 2887.68 1451.34 C 2887.68 1548.81 2877.86 1646.20 2858.50 1740.83 C 2839.63 1833.04 2811.47 1923.75 2774.81 2010.42 C 2738.82 2095.53 2694.26 2177.62 2642.39 2254.40 C 2591.00 2330.46 2531.99 2401.99 2466.99 2466.99 C 2401.99 2531.99 2330.46 2591.00 2254.40 2642.39 C 2177.62 2694.26 2095.53 2738.82 2010.42 2774.81 C 1923.75 2811.47 1833.04 2839.63 1740.83 2858.50 C 1646.20 2877.86 1548.80 2887.68 1451.34 2887.68 C 1353.88 2887.68 1256.48 2877.86 1161.85 2858.50 C 1069.64 2839.63 978.93 2811.47 892.26 2774.81 C 807.15 2738.82 725.07 2694.26 648.28 2642.39 C 572.22 2591.00 500.69 2531.99 435.69 2466.99 C 370.69 2401.99 311.68 2330.46 260.30 2254.40 C 208.42 2177.62 163.87 2095.53 127.87 2010.42 C 91.21 1923.75 63.05 1833.04 44.18 1740.83 C 24.82 1646.20 15.00 1548.81 15.00 1451.34 C 15.00 1353.88 24.82 1256.48 44.18 1161.85 C 63.05 1069.64 91.21 978.93 127.87 892.26 C 163.87 807.15 208.42 725.07 260.30 648.28 C 311.68 572.22 370.69 500.70 435.69 435.70 C 500.69 370.69 572.22 311.68 648.28 260.30 C 725.07 208.42 807.15 163.87 892.26 127.87 C 978.93 91.21 1069.64 63.05 1161.85 44.18 C 1256.48 24.82 1353.88 15.00 1451.34 15.00 M 1451.34 0.00 C 649.79 0.00 0.00 649.79 0.00 1451.34 C 0.00 2252.89 649.79 2902.68 1451.34 2902.68 C 2252.89 2902.68 2902.68 2252.89 2902.68 1451.34 C 2902.68 649.79 2252.89 0.00 1451.34 0.00 L 1451.34 0.00 Z" fill="#3c6f75" fill-rule="nonzero" group-id="1,6" node-id="56" stroke="none" target-height="2902.679" target-width="2902.679" target-x="0.001" target-y="0.001"></path></g></g><g node-id="126"><path d="M 2769.45 1451.34 C 2769.45 2179.31 2179.31 2769.45 1451.34 2769.45 C 723.37 2769.45 133.23 2179.31 133.23 1451.34 C 133.23 723.37 723.37 133.23 1451.34 133.23 C 2179.31 133.23 2769.45 723.37 2769.45 1451.34 Z" fill="url(#SVGID_1_)" fill-rule="nonzero" group-id="2" node-id="62" stroke="none" target-height="2636.22" target-width="2636.218" target-x="133.231" target-y="133.231"></path></g><g node-id="127"><path d="M 2760.95 1488.19 C 2760.95 2130.06 2240.61 2650.39 1598.74 2650.39 C 956.87 2650.39 436.54 2130.06 436.54 1488.19 C 436.54 846.33 956.87 325.99 1598.74 325.99 C 2240.61 325.99 2760.95 846.33 2760.95 1488.19 Z" fill="#5e7daa" fill-opacity="0.3" fill-rule="nonzero" group-id="3" node-id="67" stroke-linecap="butt" stroke-opacity="0.3" stroke-width="1" target-height="2324.408" target-width="2324.4102" target-x="436.535" target-y="325.986"></path></g><g node-id="128"><path d="M 1435.84 2207.78 L 1472.40 2207.78 L 1472.40 2487.62 L 1435.84 2487.62 L 1435.84 2207.78 Z" fill="#ffb450" fill-rule="nonzero" group-id="4" node-id="72" stroke="none" target-height="279.8391" target-width="36.557007" target-x="1435.839" target-y="2207.781"></path><path d="M 1304.30 2479.13 L 1390.91 2199.20 L 1425.45 2212.55 L 1338.85 2492.48 L 1304.30 2479.13 Z" fill="#ffb450" fill-rule="nonzero" group-id="4" node-id="74" stroke="none" target-height="293.28687" target-width="121.15198" target-x="1304.302" target-y="2199.196"></path><path d="M 1175.47 2485.89 L 1343.95 2196.54 L 1374.60 2218.80 L 1206.11 2508.17 L 1175.47 2485.89 Z" fill="#ffb450" fill-rule="nonzero" group-id="4" node-id="76" stroke="none" target-height="311.63403" target-width="199.12903" target-x="1175.474" target-y="2196.54"></path><path d="M 1476.14 2214.46 L 1510.69 2201.11 L 1597.26 2481.07 L 1562.71 2494.42 L 1476.14 2214.46 Z" fill="#ffb450" fill-rule="nonzero" group-id="4" node-id="78" stroke="none" target-height="293.30786" target-width="121.112915" target-x="1476.144" target-y="2201.113"></path><path d="M 1528.11 2217.54 L 1558.76 2195.27 L 1727.20 2484.62 L 1696.57 2506.91 L 1528.11 2217.54 Z" fill="#ffb450" fill-rule="nonzero" group-id="4" node-id="80" stroke="none" target-height="311.635" target-width="199.09302" target-x="1528.11" target-y="2195.27"></path><path d="M 1454.11 1020.15 C 1444.98 1020.15 1435.84 1012.84 1435.84 1001.87 L 1435.84 460.82 C 1435.84 451.68 1443.15 442.54 1454.11 442.54 C 1465.08 442.54 1472.39 449.85 1472.39 460.82 L 1472.39 1003.70 C 1472.40 1012.84 1465.08 1020.15 1454.11 1020.15 Z" fill="#ffb450" fill-rule="nonzero" group-id="4" node-id="82" stroke="none" target-height="577.61804" target-width="36.55603" target-x="1435.839" target-y="442.537"></path><path d="M 1452.74 1016.50 C 1439.08 1016.50 1425.40 1013.42 1425.40 1008.81 L 1425.40 781.08 C 1425.40 777.23 1436.34 773.39 1452.74 773.39 C 1469.15 773.39 1480.09 776.46 1480.09 781.08 L 1480.09 1009.57 C 1480.09 1013.42 1469.15 1016.50 1452.74 1016.50 Z" fill="#ffb450" fill-rule="nonzero" group-id="4" node-id="84" stroke="none" target-height="243.11401" target-width="54.68799" target-x="1425.403" target-y="773.389"></path><path d="M 1382.83 1120.69 L 1525.40 1120.69 L 1525.40 1990.77 L 1382.83 1990.77 L 1382.83 1120.69 Z" fill="#ffffff" fill-rule="nonzero" group-id="4" node-id="86" stroke="none" target-height="870.0759" target-width="142.57397" target-x="1382.827" target-y="1120.692"></path><path d="M 1507.13 1138.96 M 1543.68 1102.41 L 1366.38 1102.41 L 1366.38 2007.22 L 1543.68 2007.22 L 1543.68 1102.41 Z" fill="#ffb450" fill-rule="nonzero" group-id="4" node-id="88" stroke="none" target-height="904.8109" target-width="177.307" target-x="1366.376" target-y="1102.409"></path><path d="M 1247.56 2041.95 C 1247.51 2153.00 1339.95 2243.06 1454.03 2243.11 C 1568.10 2243.16 1660.62 2153.17 1660.67 2042.13 C 1660.67 2042.07 1660.67 2042.01 1660.67 2041.95 C 1660.72 1930.90 1568.28 1840.84 1454.21 1840.79 C 1340.13 1840.74 1247.61 1930.73 1247.56 2041.77 C 1247.56 2041.83 1247.56 2041.89 1247.56 2041.95 Z" fill="#ffcb8d" fill-rule="nonzero" group-id="4" node-id="90" stroke="none" target-height="402.3169" target-width="413.109" target-x="1247.563" target-y="1840.792"></path><path d="M 1454.11 1190.15 C 1397.45 1190.15 1349.93 1144.45 1349.93 1089.61 C 1349.93 1032.95 1397.45 989.09 1454.11 989.09 C 1510.78 989.09 1558.30 1034.77 1558.30 1089.61 C 1558.30 1144.45 1512.61 1190.15 1454.11 1190.15 Z" fill="#ffcb8d" fill-rule="nonzero" group-id="4" node-id="92" stroke="none" target-height="201.06403" target-width="208.37695" target-x="1349.926" target-y="989.085"></path><path d="M 1291.43 2087.64 C 1265.85 2087.64 1245.74 2067.54 1245.74 2041.95 C 1245.74 2016.36 1265.85 1996.25 1291.43 1996.25 L 1614.97 1996.25 C 1640.56 1996.25 1660.67 2016.36 1660.67 2041.95 C 1660.67 2067.54 1640.56 2087.64 1614.97 2087.64 L 1291.43 2087.64 Z" fill="#ff4b4b" fill-rule="nonzero" group-id="4" node-id="94" stroke="none" target-height="91.39099" target-width="414.937" target-x="1245.736" target-y="1996.253"></path><path d="M 1371.86 1117.03 C 1359.07 1117.03 1349.93 1107.89 1349.93 1095.09 L 1349.93 1080.47 C 1349.93 1067.68 1359.07 1058.54 1371.86 1058.54 L 1536.37 1058.54 C 1549.17 1058.54 1558.30 1067.68 1558.30 1080.47 L 1558.30 1095.09 C 1558.30 1107.89 1549.17 1117.03 1536.37 1117.03 L 1371.86 1117.03 Z" fill="#ff4b4b" fill-rule="nonzero" group-id="4" node-id="96" stroke="none" target-height="58.48999" target-width="208.37793" target-x="1349.926" target-y="1058.54"></path><path d="M 1390.79 1261.44 L 1515.15 1261.44 L 1515.15 1297.99 L 1390.79 1297.99 Z" fill="#c1842b" fill-rule="nonzero" group-id="4" node-id="98" stroke="none" target-height="36.553955" target-width="124.357056" target-x="1390.794" target-y="1261.438"></path><path d="M 1390.79 1356.49 L 1515.15 1356.49 L 1515.15 1393.05 L 1390.79 1393.05 Z" fill="#c1842b" fill-rule="nonzero" group-id="4" node-id="100" stroke="none" target-height="36.555054" target-width="124.357056" target-x="1390.794" target-y="1356.491"></path><path d="M 1390.79 1451.53 L 1515.15 1451.53 L 1515.15 1488.10 L 1390.79 1488.10 Z" fill="#c1842b" fill-rule="nonzero" group-id="4" node-id="102" stroke="none" target-height="36.565918" target-width="124.357056" target-x="1390.794" target-y="1451.534"></path><path d="M 1390.79 1544.76 L 1515.15 1544.76 L 1515.15 1581.32 L 1390.79 1581.32 Z" fill="#c1842b" fill-rule="nonzero" group-id="4" node-id="104" stroke="none" target-height="36.563965" target-width="124.357056" target-x="1390.794" target-y="1544.759"></path><path d="M 1390.79 1639.81 L 1515.15 1639.81 L 1515.15 1676.37 L 1390.79 1676.37 Z" fill="#c1842b" fill-rule="nonzero" group-id="4" node-id="106" stroke="none" target-height="36.55493" target-width="124.357056" target-x="1390.794" target-y="1639.812"></path><path d="M 1390.79 1734.87 L 1515.15 1734.87 L 1515.15 1771.42 L 1390.79 1771.42 Z" fill="#c1842b" fill-rule="nonzero" group-id="4" node-id="108" stroke="none" target-height="36.555054" target-width="124.357056" target-x="1390.794" target-y="1734.866"></path><path d="M 1454.11 839.19 C 1432.18 839.19 1413.90 820.91 1413.90 798.98 C 1413.90 777.04 1432.18 758.77 1454.11 758.77 C 1476.05 758.77 1494.33 777.04 1494.33 798.98 C 1494.33 822.74 1476.05 839.19 1454.11 839.19 Z" fill="#ffb450" fill-rule="nonzero" group-id="4" node-id="110" stroke="none" target-height="80.42401" target-width="80.4281" target-x="1413.903" target-y="758.769"></path><path d="M 1441.32 601.56 C 1441.32 608.63 1447.05 614.36 1454.11 614.36 C 1461.18 614.36 1466.91 608.63 1466.91 601.56 C 1466.91 594.50 1461.18 588.77 1454.11 588.77 C 1447.05 588.77 1441.32 594.50 1441.32 601.56 Z" fill="#dab9ff" fill-rule="nonzero" group-id="4" node-id="112" stroke="none" target-height="25.586975" target-width="25.589966" target-x="1441.321" target-y="588.775"></path><path d="M 1454.11 570.49 C 1437.66 570.49 1423.04 585.11 1423.04 601.56 C 1423.04 618.01 1437.66 632.64 1454.11 632.64 C 1470.56 632.64 1485.19 618.01 1485.19 601.56 C 1485.19 585.11 1472.40 570.49 1454.11 570.49 Z" fill="#ff4b4b" fill-rule="nonzero" group-id="4" node-id="114" stroke="none" target-height="62.153015" target-width="62.151978" target-x="1423.042" target-y="570.492"></path><path d="M 1422.33 806.09 C 1417.46 806.09 1413.98 802.62 1413.98 797.75 L 1413.98 792.18 C 1413.98 787.31 1417.46 783.83 1422.33 783.83 L 1484.93 783.83 C 1489.80 783.83 1493.28 787.31 1493.28 792.18 L 1493.28 797.75 C 1493.28 802.62 1489.80 806.09 1484.93 806.09 L 1422.33 806.09 Z" fill="#ff4b4b" fill-rule="nonzero" group-id="4" node-id="116" stroke="none" target-height="22.263" target-width="79.29907" target-x="1413.981" target-y="783.831"></path></g><g node-id="129"><path d="M 1275.02 2464.18 L 263.08 2464.18 L 263.08 2332.18 C 263.09 2307.89 282.78 2288.19 307.08 2288.18 L 1231.02 2288.18 C 1255.32 2288.19 1275.02 2307.89 1275.02 2332.18 L 1275.02 2464.18 Z M 2638.93 2464.18 L 1626.99 2464.18 L 1626.99 2332.18 C 1626.99 2307.89 1646.69 2288.19 1670.99 2288.18 L 2594.93 2288.18 C 2619.23 2288.19 2638.93 2307.89 2638.93 2332.18 L 2638.93 2464.18 Z" fill="#ededee" fill-rule="nonzero" group-id="5" node-id="121" stroke="none" target-height="175.99097" target-width="2375.846" target-x="263.085" target-y="2288.184"></path><path d="M 2682.93 2508.17 L 219.09 2508.17 C 194.79 2507.81 175.39 2487.81 175.75 2463.51 C 176.11 2439.73 195.31 2420.53 219.09 2420.18 L 2682.93 2420.18 C 2707.23 2420.18 2726.93 2439.88 2726.93 2464.18 C 2726.93 2488.48 2707.23 2508.17 2682.93 2508.17 L 2682.93 2508.17 Z" fill="#dcdbde" fill-rule="nonzero" group-id="5" node-id="123" stroke="none" target-height="87.99805" target-width="2551.178" target-x="175.753" target-y="2420.176"></path></g></svg>