<?xml version="1.0" standalone="no"?><!DOCTYPE svg PUBLIC "-//W3C//DTD SVG 1.1//EN" "http://www.w3.org/Graphics/SVG/1.1/DTD/svg11.dtd"><svg height="2903" legacy-metrics="false" node-id="1" sillyvg="true" template-height="2903" template-width="2903" version="1.1" viewBox="0 0 2903 2903" width="2903" xmlns="http://www.w3.org/2000/svg" xmlns:xlink="http://www.w3.org/1999/xlink"><defs node-id="62"><linearGradient gradientUnits="userSpaceOnUse" id="SVGID_1_" node-id="7" x1="1451.3401" x2="1451.34" y1="2769.4502" y2="133.2295"><stop offset="0" stop-color="#a4b1d8"></stop><stop offset="1" stop-color="#6c5b99"></stop></linearGradient></defs><g node-id="187"><path d="M 1451.34 2895.18 C 1256.42 2895.18 1067.33 2857.01 889.34 2781.72 C 803.78 2745.53 721.27 2700.74 644.08 2648.60 C 567.62 2596.95 495.73 2537.63 430.39 2472.29 C 365.05 2406.95 305.73 2335.05 254.08 2258.60 C 201.94 2181.41 157.15 2098.90 120.96 2013.34 C 45.67 1835.35 7.50 1646.26 7.50 1451.34 C 7.50 1256.42 45.67 1067.33 120.96 889.34 C 157.15 803.78 201.94 721.27 254.08 644.08 C 305.73 567.63 365.05 495.73 430.39 430.39 C 495.73 365.05 567.63 305.74 644.08 254.08 C 721.27 201.94 803.78 157.15 889.34 120.96 C 1067.33 45.67 1256.42 7.50 1451.34 7.50 C 1646.26 7.50 1835.35 45.67 2013.35 120.96 C 2098.90 157.15 2181.41 201.94 2258.60 254.08 C 2335.05 305.73 2406.95 365.05 2472.29 430.39 C 2537.63 495.73 2596.95 567.63 2648.60 644.08 C 2700.74 721.27 2745.53 803.78 2781.72 889.34 C 2857.01 1067.33 2895.18 1256.42 2895.18 1451.34 C 2895.18 1646.26 2857.01 1835.35 2781.72 2013.35 C 2745.53 2098.90 2700.74 2181.41 2648.60 2258.60 C 2596.95 2335.05 2537.63 2406.95 2472.29 2472.29 C 2406.95 2537.63 2335.05 2596.95 2258.60 2648.60 C 2181.41 2700.74 2098.90 2745.53 2013.35 2781.72 C 1835.35 2857.01 1646.26 2895.18 1451.34 2895.18 Z" fill="#e7e0e4" fill-rule="nonzero" group-id="1" node-id="73" stroke="none" target-height="2887.678" target-width="2887.677" target-x="7.501" target-y="7.501"></path><g node-id="191"><path d="M 1451.34 15.00 C 1548.80 15.00 1646.20 24.82 1740.83 44.18 C 1833.04 63.05 1923.75 91.21 2010.42 127.87 C 2095.53 163.87 2177.61 208.42 2254.40 260.30 C 2330.46 311.68 2401.99 370.69 2466.99 435.70 C 2531.99 500.70 2591.00 572.22 2642.38 648.28 C 2694.26 725.07 2738.81 807.15 2774.81 892.26 C 2811.47 978.93 2839.63 1069.64 2858.50 1161.85 C 2877.86 1256.48 2887.68 1353.88 2887.68 1451.34 C 2887.68 1548.80 2877.86 1646.20 2858.50 1740.83 C 2839.63 1833.04 2811.47 1923.75 2774.81 2010.42 C 2738.81 2095.53 2694.26 2177.61 2642.38 2254.40 C 2591.00 2330.46 2531.99 2401.98 2466.99 2466.99 C 2401.99 2531.99 2330.46 2591.00 2254.40 2642.38 C 2177.61 2694.26 2095.53 2738.81 2010.42 2774.81 C 1923.75 2811.47 1833.04 2839.63 1740.83 2858.50 C 1646.20 2877.86 1548.81 2887.68 1451.34 2887.68 C 1353.88 2887.68 1256.48 2877.86 1161.85 2858.50 C 1069.64 2839.63 978.93 2811.47 892.26 2774.81 C 807.15 2738.81 725.07 2694.26 648.28 2642.38 C 572.22 2591.00 500.70 2531.99 435.69 2466.99 C 370.69 2401.98 311.68 2330.46 260.30 2254.40 C 208.42 2177.61 163.87 2095.53 127.87 2010.42 C 91.21 1923.75 63.05 1833.04 44.18 1740.83 C 24.82 1646.20 15.00 1548.80 15.00 1451.34 C 15.00 1353.88 24.82 1256.48 44.18 1161.85 C 63.05 1069.64 91.21 978.93 127.87 892.26 C 163.87 807.15 208.42 725.07 260.30 648.28 C 311.68 572.22 370.69 500.70 435.69 435.70 C 500.70 370.69 572.22 311.68 648.28 260.30 C 725.07 208.42 807.15 163.87 892.26 127.87 C 978.93 91.21 1069.64 63.05 1161.85 44.18 C 1256.48 24.82 1353.88 15.00 1451.34 15.00 M 1451.34 0.00 C 649.79 0.00 0.00 649.79 0.00 1451.34 C 0.00 2252.89 649.79 2902.68 1451.34 2902.68 C 2252.89 2902.68 2902.68 2252.89 2902.68 1451.34 C 2902.68 649.79 2252.89 0.00 1451.34 0.00 L 1451.34 0.00 Z" fill="#4a3b76" fill-rule="nonzero" group-id="1,5" node-id="77" stroke="none" target-height="2902.678" target-width="2902.677" target-x="0.001" target-y="0.001"></path></g></g><g node-id="188"><path d="M 2769.45 1451.34 C 2769.45 1800.92 2630.58 2136.19 2383.38 2383.38 C 2136.19 2630.58 1800.92 2769.45 1451.34 2769.45 C 1101.76 2769.45 766.49 2630.58 519.30 2383.38 C 272.10 2136.19 133.23 1800.92 133.23 1451.34 C 133.23 1101.76 272.10 766.49 519.30 519.30 C 766.49 272.10 1101.76 133.23 1451.34 133.23 C 1800.92 133.23 2136.19 272.10 2383.38 519.30 C 2630.58 766.49 2769.45 1101.76 2769.45 1451.34 Z" fill="url(#SVGID_1_)" fill-rule="nonzero" group-id="2" node-id="83" stroke="none" target-height="2636.22" target-width="2636.22" target-x="133.23" target-y="133.23"></path></g><g node-id="189"><path d="M 2760.95 1488.19 C 2760.95 1796.43 2638.50 2092.04 2420.54 2310.00 C 2202.59 2527.95 1906.98 2650.40 1598.74 2650.40 C 1290.50 2650.40 994.89 2527.95 776.94 2310.00 C 558.98 2092.04 436.54 1796.43 436.54 1488.19 C 436.54 1179.96 558.98 884.34 776.94 666.39 C 994.89 448.43 1290.50 325.99 1598.74 325.99 C 1906.98 325.99 2202.59 448.43 2420.54 666.39 C 2638.50 884.34 2760.95 1179.96 2760.95 1488.19 Z" fill="#4a3b76" fill-opacity="0.3" fill-rule="nonzero" group-id="3" node-id="88" stroke-linecap="butt" stroke-opacity="0.3" stroke-width="1" target-height="2324.41" target-width="2324.4102" target-x="436.535" target-y="325.987"></path></g><g node-id="190"><path d="M 520.77 1252.57 L 1013.27 1252.57 L 1013.27 1348.11 L 520.77 1348.11 L 520.77 1252.57 Z" fill="#b7b7b7" fill-rule="nonzero" group-id="4" node-id="93" stroke="none" target-height="95.53906" target-width="492.505" target-x="520.769" target-y="1252.573"></path><path d="M 1877.84 1252.57 L 2355.86 1252.57 L 2355.86 1348.11 L 1877.84 1348.11 L 1877.84 1252.57 Z" fill="#b7b7b7" fill-rule="nonzero" group-id="4" node-id="95" stroke="none" target-height="95.53601" target-width="478.01794" target-x="1877.839" target-y="1252.573"></path><path d="M 1077.99 1009.28 L 1802.27 1009.28 L 1802.27 1104.82 L 1077.99 1104.82 L 1077.99 1009.28 Z" fill="#b7b7b7" fill-rule="nonzero" group-id="4" node-id="97" stroke="none" target-height="95.538025" target-width="724.272" target-x="1077.994" target-y="1009.285"></path><path d="M 1275.02 2455.29 L 263.08 2455.29 L 263.08 2323.30 C 263.09 2299.00 282.78 2279.31 307.08 2279.30 L 1231.02 2279.30 C 1255.32 2279.31 1275.02 2299.00 1275.02 2323.30 L 1275.02 2455.29 Z M 2638.93 2455.29 L 1627.00 2455.29 L 1627.00 2323.30 C 1627.00 2299.00 1646.69 2279.31 1670.99 2279.30 L 2594.93 2279.30 C 2619.23 2279.31 2638.93 2299.00 2638.93 2323.30 L 2638.93 2455.29 Z" fill="#ededee" fill-rule="nonzero" group-id="4" node-id="99" stroke="none" target-height="175.99097" target-width="2375.847" target-x="263.084" target-y="2279.301"></path><path d="M 2682.93 2499.29 L 219.09 2499.29 C 194.79 2498.93 175.39 2478.93 175.75 2454.63 C 176.11 2430.84 195.31 2411.65 219.09 2411.29 L 2682.93 2411.29 C 2707.23 2411.30 2726.93 2430.99 2726.93 2455.29 C 2726.93 2479.59 2707.23 2499.29 2682.93 2499.29 L 2682.93 2499.29 Z" fill="#dcdbde" fill-rule="nonzero" group-id="4" node-id="101" stroke="none" target-height="87.99805" target-width="2551.177" target-x="175.754" target-y="2411.293"></path><path d="M 490.65 2279.04 C 458.83 2279.04 432.32 2262.38 432.32 2242.38 L 432.32 820.43 C 432.32 800.43 458.83 783.77 490.65 783.77 L 501.26 783.77 C 533.08 783.77 559.59 800.43 559.59 820.43 L 559.59 2242.38 C 559.59 2262.38 533.08 2279.04 501.26 2279.04 L 490.65 2279.04 Z" fill="#b7b7b7" fill-rule="nonzero" group-id="4" node-id="103" stroke="none" target-height="1495.27" target-width="127.268036" target-x="432.322" target-y="783.772"></path><path d="M 440.69 944.40 C 427.48 944.40 418.23 934.71 418.23 923.79 C 418.23 912.88 428.80 903.18 440.69 903.18 L 551.68 903.18 C 564.89 903.18 574.14 912.88 574.14 923.79 C 574.14 934.71 563.57 944.40 551.68 944.40 L 440.69 944.40 Z" fill="#ffcf65" fill-rule="nonzero" group-id="4" node-id="105" stroke="none" target-height="41.218994" target-width="155.905" target-x="418.233" target-y="903.185"></path><path d="M 440.69 1037.75 C 427.48 1037.75 418.23 1028.05 418.23 1017.14 C 418.23 1006.23 428.80 996.53 440.69 996.53 L 551.68 996.53 C 564.89 996.53 574.14 1006.23 574.14 1017.14 C 574.14 1028.05 563.57 1037.75 551.68 1037.75 L 440.69 1037.75 Z" fill="#ffcf65" fill-rule="nonzero" group-id="4" node-id="107" stroke="none" target-height="41.21997" target-width="155.905" target-x="418.233" target-y="996.531"></path><path d="M 490.84 2279.04 C 459.02 2279.04 432.50 2262.38 432.50 2242.38 L 432.50 1753.59 C 432.50 1733.60 459.02 1716.93 490.84 1716.93 L 501.44 1716.93 C 533.26 1716.93 559.78 1733.60 559.78 1753.59 L 559.78 2242.38 C 559.78 2262.38 533.26 2279.04 501.44 2279.04 L 490.84 2279.04 Z" fill="#504b5a" fill-rule="nonzero" group-id="4" node-id="109" stroke="none" target-height="562.114" target-width="127.270996" target-x="432.505" target-y="1716.928"></path><path d="M 423.85 2085.74 L 570.98 2085.74 L 570.98 2279.04 L 423.85 2279.04 L 423.85 2085.74 Z" fill="#969696" fill-rule="nonzero" group-id="4" node-id="111" stroke="none" target-height="193.29688" target-width="147.137" target-x="423.845" target-y="2085.745"></path><path d="M 431.98 1808.02 L 559.25 1808.02 L 559.25 1866.90 L 431.98 1866.90 L 431.98 1808.02 Z" fill="#ffcf65" fill-rule="nonzero" group-id="4" node-id="113" stroke="none" target-height="58.875977" target-width="127.26999" target-x="431.981" target-y="1808.021"></path><path d="M 431.98 1941.33 L 559.25 1941.33 L 559.25 2000.21 L 431.98 2000.21 L 431.98 1941.33 Z" fill="#ffcf65" fill-rule="nonzero" group-id="4" node-id="115" stroke="none" target-height="58.875977" target-width="127.26999" target-x="431.981" target-y="1941.333"></path><path d="M 402.68 2151.29 L 572.76 2151.29 L 572.76 2279.04 L 402.68 2279.04 L 402.68 2151.29 Z" fill="#ffb450" fill-rule="nonzero" group-id="4" node-id="117" stroke="none" target-height="127.75293" target-width="170.07901" target-x="402.678" target-y="2151.289"></path><path d="M 2382.75 2279.04 C 2350.92 2279.04 2324.41 2262.38 2324.41 2242.38 L 2324.41 820.43 C 2324.41 800.43 2350.92 783.77 2382.75 783.77 L 2393.35 783.77 C 2425.17 783.77 2451.68 800.43 2451.68 820.43 L 2451.68 2242.38 C 2451.68 2262.38 2425.17 2279.04 2393.35 2279.04 L 2382.75 2279.04 Z" fill="#b7b7b7" fill-rule="nonzero" group-id="4" node-id="119" stroke="none" target-height="1495.27" target-width="127.270996" target-x="2324.409" target-y="783.772"></path><path d="M 2331.66 944.40 C 2318.45 944.40 2309.20 934.71 2309.20 923.79 C 2309.20 912.88 2319.77 903.18 2331.66 903.18 L 2442.65 903.18 C 2455.86 903.18 2465.10 912.88 2465.10 923.79 C 2465.10 934.71 2454.54 944.40 2442.65 944.40 L 2331.66 944.40 Z" fill="#ffcf65" fill-rule="nonzero" group-id="4" node-id="121" stroke="none" target-height="41.218994" target-width="155.90503" target-x="2309.199" target-y="903.185"></path><path d="M 2331.66 1037.75 C 2318.45 1037.75 2309.20 1028.05 2309.20 1017.14 C 2309.20 1006.23 2319.77 996.53 2331.66 996.53 L 2442.65 996.53 C 2455.86 996.53 2465.10 1006.23 2465.10 1017.14 C 2465.10 1028.05 2454.54 1037.75 2442.65 1037.75 L 2331.66 1037.75 Z" fill="#ffcf65" fill-rule="nonzero" group-id="4" node-id="123" stroke="none" target-height="41.21997" target-width="155.90503" target-x="2309.199" target-y="996.531"></path><path d="M 2382.75 2279.04 C 2350.92 2279.04 2324.41 2262.38 2324.41 2242.38 L 2324.41 1753.59 C 2324.41 1733.60 2350.92 1716.93 2382.75 1716.93 L 2393.35 1716.93 C 2425.17 1716.93 2451.68 1733.60 2451.68 1753.59 L 2451.68 2242.38 C 2451.68 2262.38 2425.17 2279.04 2393.35 2279.04 L 2382.75 2279.04 Z" fill="#504b5a" fill-rule="nonzero" group-id="4" node-id="125" stroke="none" target-height="562.114" target-width="127.270996" target-x="2324.409" target-y="1716.928"></path><path d="M 2317.05 2085.74 L 2464.19 2085.74 L 2464.19 2279.04 L 2317.05 2279.04 L 2317.05 2085.74 Z" fill="#969696" fill-rule="nonzero" group-id="4" node-id="127" stroke="none" target-height="193.29688" target-width="147.14014" target-x="2317.054" target-y="2085.745"></path><path d="M 2324.41 1808.02 L 2451.68 1808.02 L 2451.68 1866.90 L 2324.41 1866.90 L 2324.41 1808.02 Z" fill="#ffcf65" fill-rule="nonzero" group-id="4" node-id="129" stroke="none" target-height="58.875977" target-width="127.270996" target-x="2324.409" target-y="1808.021"></path><path d="M 2324.41 1941.33 L 2451.68 1941.33 L 2451.68 2000.21 L 2324.41 2000.21 L 2324.41 1941.33 Z" fill="#ffcf65" fill-rule="nonzero" group-id="4" node-id="131" stroke="none" target-height="58.875977" target-width="127.270996" target-x="2324.409" target-y="1941.333"></path><path d="M 2304.54 2151.29 L 2474.62 2151.29 L 2474.62 2279.04 L 2304.54 2279.04 L 2304.54 2151.29 Z" fill="#ffb450" fill-rule="nonzero" group-id="4" node-id="133" stroke="none" target-height="127.75293" target-width="170.07886" target-x="2304.537" target-y="2151.289"></path><path d="M 1041.33 2279.04 C 1005.98 2279.04 977.69 2261.27 977.69 2239.05 L 977.69 604.92 C 977.69 582.70 1005.98 564.92 1041.33 564.92 C 1076.68 564.92 1104.96 582.70 1104.96 604.92 L 1104.96 2239.05 C 1104.96 2260.16 1076.68 2279.04 1041.33 2279.04 Z" fill="#b7b7b7" fill-rule="nonzero" group-id="4" node-id="135" stroke="none" target-height="1714.117" target-width="127.26904" target-x="977.692" target-y="564.925"></path><path d="M 982.70 693.46 C 969.49 693.46 960.24 683.76 960.24 672.85 C 960.24 660.73 970.81 652.24 982.70 652.24 L 1093.68 652.24 C 1106.89 652.24 1116.14 661.94 1116.14 672.85 C 1116.14 684.98 1105.57 693.46 1093.68 693.46 L 982.70 693.46 Z" fill="#ffcf65" fill-rule="nonzero" group-id="4" node-id="137" stroke="none" target-height="41.22003" target-width="155.90497" target-x="960.237" target-y="652.24"></path><path d="M 982.70 786.81 C 969.49 786.81 960.24 777.11 960.24 766.20 C 960.24 755.29 970.81 745.59 982.70 745.59 L 1093.68 745.59 C 1106.89 745.59 1116.14 755.29 1116.14 766.20 C 1116.14 777.11 1105.57 786.81 1093.68 786.81 L 982.70 786.81 Z" fill="#ffcf65" fill-rule="nonzero" group-id="4" node-id="139" stroke="none" target-height="41.216003" target-width="155.90497" target-x="960.237" target-y="745.59"></path><path d="M 1036.03 2279.04 C 1004.21 2279.04 977.69 2262.38 977.69 2242.38 L 977.69 1753.59 C 977.69 1733.60 1004.21 1716.93 1036.03 1716.93 L 1046.63 1716.93 C 1078.44 1716.93 1104.96 1733.60 1104.96 1753.59 L 1104.96 2242.38 C 1104.96 2262.38 1078.44 2279.04 1046.63 2279.04 L 1036.03 2279.04 Z" fill="#504b5a" fill-rule="nonzero" group-id="4" node-id="141" stroke="none" target-height="562.114" target-width="127.27002" target-x="977.692" target-y="1716.928"></path><path d="M 966.97 2085.74 L 1114.11 2085.74 L 1114.11 2279.04 L 966.97 2279.04 L 966.97 2085.74 Z" fill="#969696" fill-rule="nonzero" group-id="4" node-id="143" stroke="none" target-height="193.29688" target-width="147.138" target-x="966.972" target-y="2085.745"></path><path d="M 977.69 1808.02 L 1104.96 1808.02 L 1104.96 1866.90 L 977.69 1866.90 L 977.69 1808.02 Z" fill="#ffcf65" fill-rule="nonzero" group-id="4" node-id="145" stroke="none" target-height="58.875977" target-width="127.27002" target-x="977.692" target-y="1808.021"></path><path d="M 977.69 1941.33 L 1104.96 1941.33 L 1104.96 2000.21 L 977.69 2000.21 L 977.69 1941.33 Z" fill="#ffcf65" fill-rule="nonzero" group-id="4" node-id="147" stroke="none" target-height="58.875977" target-width="127.27002" target-x="977.692" target-y="1941.333"></path><path d="M 952.57 2151.29 L 1122.65 2151.29 L 1122.65 2279.04 L 952.57 2279.04 L 952.57 2151.29 Z" fill="#ffb450" fill-rule="nonzero" group-id="4" node-id="149" stroke="none" target-height="127.75293" target-width="170.078" target-x="952.574" target-y="2151.289"></path><path d="M 1839.27 2279.04 C 1803.92 2279.04 1775.64 2261.27 1775.64 2239.05 L 1775.64 604.92 C 1775.64 582.70 1803.92 564.92 1839.27 564.92 C 1874.62 564.92 1902.91 582.70 1902.91 604.92 L 1902.91 2239.05 C 1902.91 2260.16 1874.62 2279.04 1839.27 2279.04 Z" fill="#b7b7b7" fill-rule="nonzero" group-id="4" node-id="151" stroke="none" target-height="1714.117" target-width="127.27112" target-x="1775.638" target-y="564.925"></path><path d="M 1781.76 693.46 C 1768.55 693.46 1759.31 683.76 1759.31 672.85 C 1759.31 660.73 1769.88 652.24 1781.76 652.24 L 1892.75 652.24 C 1905.96 652.24 1915.21 661.94 1915.21 672.85 C 1915.21 684.98 1904.64 693.46 1892.75 693.46 L 1781.76 693.46 Z" fill="#ffcf65" fill-rule="nonzero" group-id="4" node-id="153" stroke="none" target-height="41.22003" target-width="155.90503" target-x="1759.306" target-y="652.24"></path><path d="M 1781.76 786.81 C 1768.55 786.81 1759.31 777.11 1759.31 766.20 C 1759.31 755.29 1769.88 745.59 1781.76 745.59 L 1892.75 745.59 C 1905.96 745.59 1915.21 755.29 1915.21 766.20 C 1915.21 777.11 1904.64 786.81 1892.75 786.81 L 1781.76 786.81 Z" fill="#ffcf65" fill-rule="nonzero" group-id="4" node-id="155" stroke="none" target-height="41.216003" target-width="155.90503" target-x="1759.306" target-y="745.59"></path><path d="M 1833.97 2279.04 C 1802.15 2279.04 1775.64 2262.38 1775.64 2242.38 L 1775.64 1753.59 C 1775.64 1733.60 1802.15 1716.93 1833.97 1716.93 L 1844.58 1716.93 C 1876.40 1716.93 1902.91 1733.60 1902.91 1753.59 L 1902.91 2242.38 C 1902.91 2262.38 1876.40 2279.04 1844.58 2279.04 L 1833.97 2279.04 Z" fill="#504b5a" fill-rule="nonzero" group-id="4" node-id="157" stroke="none" target-height="562.114" target-width="127.27002" target-x="1775.638" target-y="1716.928"></path><path d="M 1766.04 2085.74 L 1913.18 2085.74 L 1913.18 2279.04 L 1766.04 2279.04 L 1766.04 2085.74 Z" fill="#969696" fill-rule="nonzero" group-id="4" node-id="159" stroke="none" target-height="193.29688" target-width="147.13904" target-x="1766.042" target-y="2085.745"></path><path d="M 1775.64 1808.02 L 1902.91 1808.02 L 1902.91 1866.90 L 1775.64 1866.90 L 1775.64 1808.02 Z" fill="#ffcf65" fill-rule="nonzero" group-id="4" node-id="161" stroke="none" target-height="58.875977" target-width="127.27112" target-x="1775.638" target-y="1808.021"></path><path d="M 1775.64 1941.33 L 1902.91 1941.33 L 1902.91 2000.21 L 1775.64 2000.21 L 1775.64 1941.33 Z" fill="#ffcf65" fill-rule="nonzero" group-id="4" node-id="163" stroke="none" target-height="58.875977" target-width="127.27112" target-x="1775.638" target-y="1941.333"></path><path d="M 1754.64 2151.29 L 1924.72 2151.29 L 1924.72 2279.04 L 1754.64 2279.04 L 1754.64 2151.29 Z" fill="#ffb450" fill-rule="nonzero" group-id="4" node-id="165" stroke="none" target-height="127.75293" target-width="170.0791" target-x="1754.643" target-y="2151.289"></path><path d="M 458.78 1254.35 L 526.54 1091.05 L 1003.12 1091.05 L 1070.89 1254.35 L 458.78 1254.35 Z" fill="#0a36a5" fill-rule="nonzero" group-id="4" node-id="167" stroke="none" target-height="163.30505" target-width="612.10596" target-x="458.78" target-y="1091.047"></path><path d="M 520.77 1431.43 L 1013.27 1431.43 L 1013.27 1526.97 L 520.77 1526.97 L 520.77 1431.43 Z" fill="#b7b7b7" fill-rule="nonzero" group-id="4" node-id="169" stroke="none" target-height="95.537964" target-width="492.505" target-x="520.769" target-y="1431.433"></path><path d="M 1810.74 1254.35 L 1878.51 1091.05 L 2353.98 1091.05 L 2422.85 1254.35 L 1810.74 1254.35 Z" fill="#0a36a5" fill-rule="nonzero" group-id="4" node-id="171" stroke="none" target-height="163.30505" target-width="612.1029" target-x="1810.745" target-y="1091.047"></path><path d="M 1877.84 1431.43 L 2355.86 1431.43 L 2355.86 1526.96 L 1877.84 1526.96 L 1877.84 1431.43 Z" fill="#b7b7b7" fill-rule="nonzero" group-id="4" node-id="173" stroke="none" target-height="95.53601" target-width="478.01794" target-x="1877.839" target-y="1431.428"></path><path d="M 1007.57 1011.06 L 1076.44 847.76 L 1805.19 847.76 L 1872.95 1011.06 L 1007.57 1011.06 Z" fill="#0a36a5" fill-rule="nonzero" group-id="4" node-id="175" stroke="none" target-height="163.302" target-width="865.38995" target-x="1007.565" target-y="847.762"></path><path d="M 458.78 1223.35 L 526.54 1060.04 L 1003.12 1060.04 L 1070.89 1223.35 L 458.78 1223.35 Z" fill="#1246db" fill-rule="nonzero" group-id="4" node-id="177" stroke="none" target-height="163.30505" target-width="612.10596" target-x="458.78" target-y="1060.043"></path><path d="M 1810.74 1223.35 L 1878.51 1060.04 L 2353.98 1060.04 L 2422.85 1223.35 L 1810.74 1223.35 Z" fill="#1246db" fill-rule="nonzero" group-id="4" node-id="179" stroke="none" target-height="163.30505" target-width="612.1029" target-x="1810.745" target-y="1060.043"></path><path d="M 1007.57 980.06 L 1076.44 816.76 L 1805.19 816.76 L 1872.95 980.06 L 1007.57 980.06 Z" fill="#1246db" fill-rule="nonzero" group-id="4" node-id="181" stroke="none" target-height="163.302" target-width="865.38995" target-x="1007.565" target-y="816.758"></path><path d="M 1077.99 1189.25 L 1802.27 1189.25 L 1802.27 1284.79 L 1077.99 1284.79 L 1077.99 1189.25 Z" fill="#b7b7b7" fill-rule="nonzero" group-id="4" node-id="183" stroke="none" target-height="95.537964" target-width="724.272" target-x="1077.994" target-y="1189.25"></path><path d="M 1290.84 1029.73 L 1589.68 1029.73 L 1589.68 1206.36 L 1290.84 1206.36 L 1290.84 1029.73 Z" fill="#b7b7b7" fill-rule="nonzero" group-id="4" node-id="185" stroke="#6d6d6d" stroke-linecap="butt" stroke-width="5" target-height="176.63403" target-width="298.833" target-x="1290.843" target-y="1029.726"></path></g></svg>