<?xml version="1.0" standalone="no"?><!DOCTYPE svg PUBLIC "-//W3C//DTD SVG 1.1//EN" "http://www.w3.org/Graphics/SVG/1.1/DTD/svg11.dtd"><svg height="2903" legacy-metrics="false" node-id="1" sillyvg="true" template-height="2903" template-width="2903" version="1.1" viewBox="0 0 2903 2903" width="2903" xmlns="http://www.w3.org/2000/svg" xmlns:xlink="http://www.w3.org/1999/xlink"><defs node-id="27"><linearGradient gradientUnits="userSpaceOnUse" id="SVGID_1_" node-id="7" x1="1455.0566" x2="1455.0565" y1="2769.4502" y2="133.2295"><stop offset="0" stop-color="#bedaf0"></stop><stop offset="1" stop-color="#747cc7"></stop></linearGradient></defs><g node-id="83"><path d="M 1451.34 2895.18 C 1256.42 2895.18 1067.34 2857.01 889.34 2781.72 C 803.78 2745.53 721.27 2700.74 644.08 2648.60 C 567.63 2596.95 495.73 2537.63 430.39 2472.29 C 365.05 2406.95 305.74 2335.05 254.08 2258.60 C 201.94 2181.41 157.15 2098.90 120.96 2013.35 C 45.68 1835.35 7.50 1646.26 7.50 1451.34 C 7.50 1256.42 45.68 1067.33 120.96 889.34 C 157.15 803.78 201.94 721.27 254.08 644.08 C 305.74 567.63 365.05 495.73 430.39 430.39 C 495.73 365.05 567.63 305.73 644.08 254.08 C 721.27 201.94 803.78 157.15 889.34 120.96 C 1067.34 45.67 1256.42 7.50 1451.34 7.50 C 1646.26 7.50 1835.35 45.67 2013.35 120.96 C 2098.90 157.15 2181.41 201.94 2258.60 254.08 C 2335.06 305.73 2406.95 365.05 2472.29 430.39 C 2537.63 495.73 2596.95 567.63 2648.60 644.08 C 2700.75 721.27 2745.54 803.78 2781.72 889.34 C 2857.01 1067.33 2895.18 1256.42 2895.18 1451.34 C 2895.18 1646.26 2857.01 1835.35 2781.72 2013.35 C 2745.53 2098.90 2700.75 2181.41 2648.60 2258.60 C 2596.95 2335.05 2537.63 2406.95 2472.29 2472.29 C 2406.95 2537.63 2335.06 2596.95 2258.60 2648.60 C 2181.41 2700.74 2098.90 2745.53 2013.35 2781.72 C 1835.35 2857.01 1646.26 2895.18 1451.34 2895.18 Z" fill="#e7e0e4" fill-rule="nonzero" group-id="1" node-id="38" stroke="none" target-height="2887.678" target-width="2887.68" target-x="7.502" target-y="7.501"></path><g node-id="88"><path d="M 1451.34 15.00 C 1548.80 15.00 1646.20 24.82 1740.83 44.18 C 1833.04 63.05 1923.75 91.21 2010.42 127.87 C 2095.53 163.87 2177.62 208.42 2254.40 260.30 C 2330.46 311.68 2401.99 370.69 2466.99 435.70 C 2531.99 500.70 2591.00 572.22 2642.39 648.28 C 2694.26 725.07 2738.82 807.15 2774.81 892.26 C 2811.47 978.93 2839.63 1069.64 2858.50 1161.85 C 2877.86 1256.48 2887.68 1353.88 2887.68 1451.34 C 2887.68 1548.80 2877.86 1646.20 2858.50 1740.83 C 2839.63 1833.04 2811.48 1923.75 2774.81 2010.42 C 2738.82 2095.53 2694.26 2177.61 2642.39 2254.40 C 2591.00 2330.46 2531.99 2401.98 2466.99 2466.99 C 2401.99 2531.99 2330.46 2591.00 2254.40 2642.38 C 2177.62 2694.26 2095.53 2738.81 2010.42 2774.81 C 1923.75 2811.47 1833.04 2839.63 1740.83 2858.50 C 1646.20 2877.86 1548.80 2887.68 1451.34 2887.68 C 1353.88 2887.68 1256.48 2877.86 1161.85 2858.50 C 1069.64 2839.63 978.93 2811.47 892.26 2774.81 C 807.15 2738.81 725.07 2694.26 648.28 2642.38 C 572.22 2591.00 500.70 2531.99 435.70 2466.99 C 370.69 2401.98 311.68 2330.46 260.30 2254.40 C 208.42 2177.61 163.87 2095.53 127.87 2010.42 C 91.21 1923.75 63.05 1833.04 44.18 1740.83 C 24.82 1646.20 15.00 1548.80 15.00 1451.34 C 15.00 1353.88 24.82 1256.48 44.18 1161.85 C 63.05 1069.64 91.21 978.93 127.87 892.26 C 163.87 807.15 208.42 725.07 260.30 648.28 C 311.68 572.22 370.69 500.70 435.70 435.70 C 500.70 370.69 572.22 311.68 648.28 260.30 C 725.07 208.42 807.15 163.87 892.26 127.87 C 978.93 91.21 1069.64 63.05 1161.85 44.18 C 1256.48 24.82 1353.88 15.00 1451.34 15.00 M 1451.34 0.00 C 649.79 0.00 0.00 649.79 0.00 1451.34 C 0.00 2252.89 649.79 2902.68 1451.34 2902.68 C 2252.89 2902.68 2902.68 2252.89 2902.68 1451.34 C 2902.68 649.79 2252.89 0.00 1451.34 0.00 L 1451.34 0.00 Z" fill="#4a3b76" fill-rule="nonzero" group-id="1,6" node-id="42" stroke="none" target-height="2902.678" target-width="2902.68" target-x="0.002" target-y="0.001"></path></g></g><g node-id="84"><path d="M 2773.17 1451.34 C 2773.17 1800.92 2634.29 2136.19 2387.10 2383.38 C 2139.91 2630.58 1804.64 2769.45 1455.06 2769.45 C 1105.47 2769.45 770.21 2630.58 523.01 2383.38 C 275.82 2136.19 136.95 1800.92 136.95 1451.34 C 136.95 1101.76 275.82 766.49 523.01 519.30 C 770.21 272.10 1105.47 133.23 1455.06 133.23 C 1804.64 133.23 2139.91 272.10 2387.10 519.30 C 2634.29 766.49 2773.17 1101.76 2773.17 1451.34 Z" fill="url(#SVGID_1_)" fill-rule="nonzero" group-id="2" node-id="48" stroke="none" target-height="2636.218" target-width="2636.218" target-x="136.948" target-y="133.231"></path></g><g node-id="85"><path d="M 2760.94 1488.19 C 2760.94 2130.06 2240.61 2650.39 1598.74 2650.39 C 956.87 2650.39 436.54 2130.06 436.54 1488.19 C 436.54 846.33 956.87 325.98 1598.74 325.98 C 2240.61 325.98 2760.94 846.33 2760.94 1488.19 Z" fill="#47467e" fill-opacity="0.3" fill-rule="nonzero" group-id="3" node-id="53" stroke-linecap="butt" stroke-opacity="0.3" stroke-width="1" target-height="2324.4102" target-width="2324.4092" target-x="436.535" target-y="325.984"></path></g><g node-id="86"><path d="M 741.99 2344.62 C 738.13 2344.62 734.28 2340.77 734.28 2336.92 L 734.28 2209.70 C 734.28 2205.84 738.13 2201.99 741.99 2201.99 L 2160.69 2201.99 C 2164.55 2201.99 2168.40 2205.84 2168.40 2209.70 L 2168.40 2338.84 C 2168.40 2342.70 2164.55 2346.56 2160.69 2346.56 L 741.99 2346.56 L 741.99 2344.62 Z" fill="#31831f" fill-rule="nonzero" group-id="4" node-id="58" stroke="none" target-height="144.5708" target-width="1434.1208" target-x="734.279" target-y="2201.986"></path><path d="M 961.73 2201.99 C 959.81 2201.99 957.88 2200.05 957.88 2198.13 L 957.88 2061.27 C 957.88 2059.34 959.81 2057.42 961.73 2057.42 L 1940.95 2057.42 C 1942.87 2057.42 1944.80 2059.34 1944.80 2061.27 L 1944.80 2198.13 C 1944.80 2200.05 1942.87 2201.99 1940.95 2201.99 L 961.73 2201.99 Z" fill="#ffb351" fill-rule="nonzero" group-id="4" node-id="60" stroke="none" target-height="144.56909" target-width="986.92596" target-x="957.878" target-y="2057.416"></path><path d="M 1648.41 823.55 L 1271.08 823.55 C 1271.08 825.40 1271.08 825.40 1272.93 827.25 L 1579.97 1104.70 C 1594.76 991.87 1618.81 895.68 1648.41 823.55 Z" fill="#ffb351" fill-rule="nonzero" group-id="4" node-id="62" stroke="none" target-height="281.14697" target-width="377.328" target-x="1271.082" target-y="823.553"></path><path d="M 1385.80 1668.04 L 1385.80 1654.56 C 1391.59 1527.34 1389.66 1402.04 1380.02 1286.38 L 1549.65 1440.60 C 1547.72 1511.91 1549.65 1583.23 1551.57 1656.48 C 1553.50 1716.23 1557.35 1775.99 1561.22 1831.89 L 1385.80 1668.05 L 1385.80 1668.04 Z" fill="#5091d7" fill-rule="nonzero" group-id="4" node-id="64" stroke="none" target-height="545.50696" target-width="181.19592" target-x="1380.02" target-y="1286.38"></path><path d="M 1356.89 2018.87 C 1370.38 1912.85 1380.02 1793.34 1385.80 1666.12 L 1563.14 1826.11 C 1576.63 1997.66 1595.91 2142.22 1622.90 2259.81 L 1356.89 2018.87 Z" fill="#cd6be8" fill-rule="nonzero" group-id="4" node-id="66" stroke="none" target-height="593.69104" target-width="266.00793" target-x="1356.889" target-y="1666.122"></path><path d="M 1457.13 2491.12 L 1293.28 2342.70 C 1318.34 2255.96 1339.54 2148.01 1356.89 2020.79 L 1624.83 2261.74 C 1647.96 2358.12 1674.94 2435.23 1705.78 2489.19 L 1457.13 2489.19 L 1457.13 2491.12 Z" fill="#e53636" fill-rule="nonzero" group-id="4" node-id="68" stroke="none" target-height="470.33606" target-width="412.50208" target-x="1293.277" target-y="2020.788"></path><path d="M 1235.45 2493.05 C 1258.58 2452.58 1277.86 2402.45 1297.13 2340.77 L 1464.83 2493.05 L 1235.45 2493.05 Z" fill="#ffb351" fill-rule="nonzero" group-id="4" node-id="70" stroke="none" target-height="152.28394" target-width="229.3789" target-x="1235.451" target-y="2340.771"></path><path d="M 1428.21 825.32 L 1468.69 397.64 L 1511.09 825.32 L 1428.21 825.32 Z" fill="#5091d7" fill-rule="nonzero" group-id="4" node-id="72" stroke="none" target-height="427.679" target-width="82.87903" target-x="1428.213" target-y="397.644"></path><path d="M 1300.99 852.67 C 1339.54 958.69 1368.45 1110.98 1381.95 1286.38 L 1381.94 1286.38 L 1551.57 1440.60 C 1555.24 1319.59 1564.15 1203.86 1579.94 1103.28 L 1300.99 852.67 Z" fill="#31831f" fill-rule="nonzero" group-id="4" node-id="74" stroke="none" target-height="587.923" target-width="278.95105" target-x="1300.99" target-y="852.673"></path></g><g node-id="87"><path d="M 1275.02 2474.80 L 263.08 2474.80 L 263.08 2342.81 C 263.09 2318.51 282.78 2298.81 307.08 2298.81 L 1231.02 2298.81 C 1255.32 2298.81 1275.02 2318.51 1275.02 2342.81 L 1275.02 2474.80 Z M 2638.93 2474.80 L 1626.99 2474.80 L 1626.99 2342.81 C 1626.99 2318.51 1646.69 2298.81 1670.99 2298.81 L 2594.93 2298.81 C 2619.23 2298.81 2638.93 2318.51 2638.93 2342.81 L 2638.93 2474.80 Z" fill="#ededee" fill-rule="nonzero" group-id="5" node-id="79" stroke="none" target-height="175.99219" target-width="2375.848" target-x="263.084" target-y="2298.807"></path><path d="M 2682.93 2518.80 L 219.09 2518.80 C 194.79 2518.43 175.39 2498.44 175.75 2474.14 C 176.11 2450.35 195.31 2431.16 219.09 2430.80 L 2682.93 2430.80 C 2707.23 2430.80 2726.93 2450.50 2726.93 2474.80 C 2726.93 2499.10 2707.23 2518.80 2682.93 2518.80 L 2682.93 2518.80 Z" fill="#dcdbde" fill-rule="nonzero" group-id="5" node-id="81" stroke="none" target-height="87.99805" target-width="2551.18" target-x="175.752" target-y="2430.8"></path></g></svg>